<svg xmlns="http://www.w3.org/2000/svg" xmlns:xlink="http://www.w3.org/1999/xlink" width="500" zoomAndPan="magnify" viewBox="0 0 375 374.999991" height="500" preserveAspectRatio="xMidYMid meet" version="1.0"><defs><g/><clipPath id="56c10370c4"><path d="M 187.5 0 C 83.945312 0 0 83.945312 0 187.5 C 0 291.054688 83.945312 375 187.5 375 C 291.054688 375 375 291.054688 375 187.5 C 375 83.945312 291.054688 0 187.5 0 Z M 187.5 0 " clip-rule="nonzero"/></clipPath><clipPath id="2c0132ec25"><path d="M 0 0 L 374.992188 0 L 374.992188 374.992188 L 0 374.992188 Z M 0 0 " clip-rule="nonzero"/></clipPath><clipPath id="c0b2dbddac"><path d="M 187.496094 0 C 83.945312 0 0 83.945312 0 187.496094 C 0 291.046875 83.945312 374.992188 187.496094 374.992188 C 291.046875 374.992188 374.992188 291.046875 374.992188 187.496094 C 374.992188 83.945312 291.046875 0 187.496094 0 Z M 187.496094 0 " clip-rule="nonzero"/></clipPath><clipPath id="077b160707"><path d="M 17.074219 17.074219 L 357.925781 17.074219 L 357.925781 357.925781 L 17.074219 357.925781 Z M 17.074219 17.074219 " clip-rule="nonzero"/></clipPath><clipPath id="2aa9858e23"><path d="M 187.5 17.074219 C 93.375 17.074219 17.074219 93.375 17.074219 187.5 C 17.074219 281.625 93.375 357.925781 187.5 357.925781 C 281.625 357.925781 357.925781 281.625 357.925781 187.5 C 357.925781 93.375 281.625 17.074219 187.5 17.074219 Z M 187.5 17.074219 " clip-rule="nonzero"/></clipPath><clipPath id="a3b1f33cbd"><path d="M 73.769531 73.769531 L 301.253906 73.769531 L 301.253906 301.253906 L 73.769531 301.253906 Z M 73.769531 73.769531 " clip-rule="nonzero"/></clipPath><clipPath id="1cc58e6367"><path d="M 86 166 L 292 166 L 292 301.253906 L 86 301.253906 Z M 86 166 " clip-rule="nonzero"/></clipPath></defs><g clip-path="url(#56c10370c4)"><rect x="-37.5" width="450" fill="#edd6ab" y="-37.499999" height="449.999989" fill-opacity="1"/></g><g clip-path="url(#2c0132ec25)"><g clip-path="url(#c0b2dbddac)"><path stroke-linecap="butt" transform="matrix(1.137413, 0, 0, 1.137413, 0.0000045, 0.000000000000063949)" fill="none" stroke-linejoin="miter" d="M 164.844288 -0.000000000000056223 C 73.803697 -0.000000000000056223 -0.00000395635 73.803701 -0.00000395635 164.844291 C -0.00000395635 255.884882 73.803697 329.688583 164.844288 329.688583 C 255.884878 329.688583 329.688579 255.884882 329.688579 164.844291 C 329.688579 73.803701 255.884878 -0.000000000000056223 164.844288 -0.000000000000056223 Z M 164.844288 -0.000000000000056223 " stroke="#213851" stroke-width="9.231472" stroke-opacity="1" stroke-miterlimit="4"/></g></g><g clip-path="url(#077b160707)"><g clip-path="url(#2aa9858e23)"><path fill="#213851" d="M 17.074219 17.074219 L 357.925781 17.074219 L 357.925781 357.925781 L 17.074219 357.925781 Z M 17.074219 17.074219 " fill-opacity="1" fill-rule="nonzero"/></g></g><g clip-path="url(#a3b1f33cbd)"><path fill="#e61a23" d="M 301.230469 187.488281 C 301.230469 189.351562 301.183594 191.210938 301.09375 193.070312 C 301.003906 194.925781 300.863281 196.785156 300.683594 198.636719 C 300.5 200.488281 300.273438 202.335938 300 204.175781 C 299.726562 206.015625 299.410156 207.847656 299.046875 209.675781 C 298.683594 211.5 298.273438 213.316406 297.820312 215.121094 C 297.371094 216.925781 296.875 218.71875 296.332031 220.5 C 295.792969 222.28125 295.210938 224.046875 294.582031 225.800781 C 293.957031 227.550781 293.285156 229.289062 292.574219 231.007812 C 291.863281 232.726562 291.109375 234.425781 290.3125 236.109375 C 289.515625 237.792969 288.679688 239.453125 287.800781 241.09375 C 286.925781 242.738281 286.007812 244.355469 285.050781 245.953125 C 284.09375 247.546875 283.097656 249.121094 282.066406 250.667969 C 281.03125 252.214844 279.960938 253.734375 278.851562 255.230469 C 277.742188 256.726562 276.597656 258.191406 275.417969 259.632812 C 274.238281 261.070312 273.019531 262.480469 271.773438 263.859375 C 270.523438 265.238281 269.238281 266.585938 267.921875 267.898438 C 266.605469 269.214844 265.257812 270.5 263.878906 271.75 C 262.5 273 261.09375 274.214844 259.652344 275.394531 C 258.214844 276.574219 256.75 277.71875 255.253906 278.828125 C 253.757812 279.9375 252.238281 281.007812 250.691406 282.042969 C 249.144531 283.078125 247.570312 284.070312 245.976562 285.027344 C 244.378906 285.984375 242.757812 286.902344 241.117188 287.78125 C 239.476562 288.65625 237.816406 289.492188 236.132812 290.289062 C 234.449219 291.085938 232.75 291.839844 231.03125 292.550781 C 229.308594 293.261719 227.574219 293.933594 225.824219 294.558594 C 224.070312 295.1875 222.304688 295.769531 220.523438 296.3125 C 218.742188 296.851562 216.949219 297.347656 215.144531 297.800781 C 213.335938 298.25 211.523438 298.660156 209.695312 299.023438 C 207.871094 299.386719 206.039062 299.703125 204.199219 299.976562 C 202.355469 300.25 200.511719 300.476562 198.65625 300.660156 C 196.804688 300.84375 194.949219 300.980469 193.089844 301.070312 C 191.234375 301.160156 189.371094 301.207031 187.511719 301.207031 C 185.652344 301.207031 183.789062 301.160156 181.933594 301.070312 C 180.074219 300.980469 178.21875 300.84375 176.367188 300.660156 C 174.511719 300.476562 172.667969 300.25 170.824219 299.976562 C 168.984375 299.703125 167.152344 299.386719 165.328125 299.023438 C 163.5 298.660156 161.6875 298.25 159.878906 297.800781 C 158.074219 297.347656 156.28125 296.851562 154.5 296.3125 C 152.71875 295.769531 150.953125 295.1875 149.199219 294.558594 C 147.449219 293.933594 145.714844 293.261719 143.992188 292.550781 C 142.273438 291.839844 140.574219 291.085938 138.890625 290.289062 C 137.207031 289.492188 135.546875 288.65625 133.90625 287.78125 C 132.265625 286.902344 130.644531 285.984375 129.046875 285.027344 C 127.453125 284.070312 125.878906 283.078125 124.332031 282.042969 C 122.785156 281.007812 121.265625 279.9375 119.769531 278.828125 C 118.273438 277.71875 116.808594 276.574219 115.371094 275.394531 C 113.929688 274.214844 112.523438 273 111.144531 271.75 C 109.765625 270.5 108.417969 269.214844 107.101562 267.898438 C 105.785156 266.585938 104.5 265.238281 103.25 263.859375 C 102.003906 262.480469 100.785156 261.070312 99.605469 259.632812 C 98.425781 258.191406 97.28125 256.726562 96.171875 255.230469 C 95.0625 253.734375 93.992188 252.214844 92.957031 250.667969 C 91.925781 249.121094 90.929688 247.546875 89.972656 245.953125 C 89.015625 244.355469 88.097656 242.738281 87.222656 241.09375 C 86.34375 239.453125 85.507812 237.792969 84.710938 236.109375 C 83.914062 234.425781 83.160156 232.726562 82.449219 231.007812 C 81.738281 229.289062 81.066406 227.550781 80.441406 225.800781 C 79.8125 224.046875 79.230469 222.28125 78.691406 220.5 C 78.148438 218.71875 77.652344 216.925781 77.199219 215.121094 C 76.75 213.316406 76.339844 211.5 75.976562 209.675781 C 75.613281 207.847656 75.296875 206.015625 75.023438 204.175781 C 74.75 202.335938 74.523438 200.488281 74.339844 198.636719 C 74.160156 196.785156 74.019531 194.925781 73.929688 193.070312 C 73.839844 191.210938 73.792969 189.351562 73.792969 187.488281 C 73.792969 185.628906 73.839844 183.769531 73.929688 181.910156 C 74.019531 180.050781 74.160156 178.195312 74.339844 176.34375 C 74.523438 174.492188 74.75 172.644531 75.023438 170.804688 C 75.296875 168.960938 75.613281 167.128906 75.976562 165.304688 C 76.339844 163.476562 76.75 161.664062 77.199219 159.859375 C 77.652344 158.050781 78.148438 156.257812 78.691406 154.476562 C 79.230469 152.695312 79.8125 150.929688 80.441406 149.179688 C 81.066406 147.425781 81.738281 145.691406 82.449219 143.972656 C 83.160156 142.25 83.914062 140.550781 84.710938 138.867188 C 85.507812 137.1875 86.34375 135.523438 87.222656 133.882812 C 88.097656 132.242188 89.015625 130.621094 89.972656 129.027344 C 90.929688 127.429688 91.925781 125.859375 92.957031 124.308594 C 93.992188 122.761719 95.0625 121.242188 96.171875 119.746094 C 97.28125 118.253906 98.425781 116.785156 99.605469 115.347656 C 100.785156 113.90625 102.003906 112.5 103.25 111.121094 C 104.5 109.742188 105.785156 108.394531 107.101562 107.078125 C 108.417969 105.761719 109.765625 104.480469 111.144531 103.230469 C 112.523438 101.980469 113.929688 100.765625 115.371094 99.582031 C 116.808594 98.402344 118.273438 97.257812 119.769531 96.148438 C 121.265625 95.039062 122.785156 93.96875 124.332031 92.933594 C 125.878906 91.902344 127.453125 90.90625 129.046875 89.949219 C 130.644531 88.992188 132.265625 88.074219 133.90625 87.199219 C 135.546875 86.320312 137.207031 85.484375 138.890625 84.6875 C 140.574219 83.894531 142.273438 83.140625 143.992188 82.425781 C 145.714844 81.714844 147.449219 81.042969 149.199219 80.417969 C 150.953125 79.789062 152.71875 79.207031 154.5 78.667969 C 156.28125 78.125 158.074219 77.628906 159.878906 77.179688 C 161.6875 76.726562 163.5 76.320312 165.328125 75.957031 C 167.152344 75.59375 168.984375 75.273438 170.824219 75 C 172.667969 74.726562 174.511719 74.5 176.367188 74.316406 C 178.21875 74.136719 180.074219 74 181.933594 73.90625 C 183.789062 73.816406 185.652344 73.769531 187.511719 73.769531 C 189.371094 73.769531 191.234375 73.816406 193.089844 73.90625 C 194.949219 74 196.804688 74.136719 198.65625 74.316406 C 200.511719 74.5 202.355469 74.726562 204.199219 75 C 206.039062 75.273438 207.871094 75.59375 209.695312 75.957031 C 211.523438 76.320312 213.335938 76.726562 215.144531 77.179688 C 216.949219 77.628906 218.742188 78.125 220.523438 78.667969 C 222.304688 79.207031 224.070312 79.789062 225.824219 80.417969 C 227.574219 81.042969 229.308594 81.714844 231.03125 82.425781 C 232.75 83.140625 234.449219 83.894531 236.132812 84.6875 C 237.816406 85.484375 239.476562 86.320312 241.117188 87.199219 C 242.757812 88.074219 244.378906 88.992188 245.976562 89.949219 C 247.570312 90.90625 249.144531 91.902344 250.691406 92.933594 C 252.238281 93.96875 253.757812 95.039062 255.253906 96.148438 C 256.75 97.257812 258.214844 98.402344 259.652344 99.582031 C 261.09375 100.765625 262.5 101.980469 263.878906 103.230469 C 265.257812 104.480469 266.605469 105.761719 267.921875 107.078125 C 269.238281 108.394531 270.523438 109.742188 271.773438 111.121094 C 273.019531 112.5 274.238281 113.90625 275.417969 115.347656 C 276.597656 116.785156 277.742188 118.253906 278.851562 119.746094 C 279.960938 121.242188 281.03125 122.761719 282.066406 124.308594 C 283.097656 125.859375 284.09375 127.429688 285.050781 129.027344 C 286.007812 130.621094 286.925781 132.242188 287.800781 133.882812 C 288.679688 135.523438 289.515625 137.1875 290.3125 138.867188 C 291.109375 140.550781 291.863281 142.25 292.574219 143.972656 C 293.285156 145.691406 293.957031 147.425781 294.582031 149.179688 C 295.210938 150.929688 295.792969 152.695312 296.332031 154.476562 C 296.875 156.257812 297.371094 158.050781 297.824219 159.859375 C 298.273438 161.664062 298.683594 163.476562 299.046875 165.304688 C 299.410156 167.128906 299.726562 168.960938 300 170.804688 C 300.273438 172.644531 300.5 174.492188 300.683594 176.34375 C 300.863281 178.195312 301.003906 180.050781 301.09375 181.910156 C 301.183594 183.769531 301.230469 185.628906 301.230469 187.488281 Z M 301.230469 187.488281 " fill-opacity="1" fill-rule="nonzero"/></g><path fill="#ed7622" d="M 271.300781 187.488281 C 271.300781 188.859375 271.265625 190.230469 271.199219 191.601562 C 271.132812 192.96875 271.03125 194.335938 270.894531 195.703125 C 270.761719 197.066406 270.59375 198.425781 270.394531 199.78125 C 270.191406 201.140625 269.957031 202.492188 269.691406 203.835938 C 269.421875 205.179688 269.121094 206.519531 268.789062 207.847656 C 268.457031 209.179688 268.089844 210.5 267.691406 211.8125 C 267.292969 213.125 266.863281 214.425781 266.402344 215.714844 C 265.941406 217.007812 265.445312 218.285156 264.921875 219.554688 C 264.398438 220.820312 263.839844 222.074219 263.253906 223.3125 C 262.667969 224.550781 262.050781 225.777344 261.40625 226.984375 C 260.757812 228.195312 260.082031 229.386719 259.378906 230.566406 C 258.675781 231.742188 257.941406 232.898438 257.179688 234.039062 C 256.417969 235.179688 255.628906 236.300781 254.8125 237.402344 C 253.992188 238.503906 253.152344 239.582031 252.28125 240.644531 C 251.410156 241.703125 250.515625 242.742188 249.59375 243.757812 C 248.671875 244.773438 247.726562 245.765625 246.757812 246.734375 C 245.789062 247.707031 244.796875 248.652344 243.78125 249.570312 C 242.765625 250.492188 241.726562 251.386719 240.667969 252.257812 C 239.605469 253.128906 238.527344 253.972656 237.425781 254.789062 C 236.324219 255.605469 235.203125 256.394531 234.0625 257.15625 C 232.921875 257.917969 231.761719 258.652344 230.585938 259.355469 C 229.410156 260.0625 228.21875 260.738281 227.007812 261.382812 C 225.800781 262.03125 224.574219 262.644531 223.335938 263.230469 C 222.097656 263.820312 220.84375 264.375 219.574219 264.898438 C 218.308594 265.421875 217.03125 265.917969 215.738281 266.378906 C 214.449219 266.839844 213.144531 267.269531 211.835938 267.667969 C 210.523438 268.066406 209.199219 268.433594 207.871094 268.765625 C 206.539062 269.097656 205.203125 269.398438 203.859375 269.667969 C 202.511719 269.933594 201.164062 270.167969 199.804688 270.371094 C 198.449219 270.570312 197.089844 270.738281 195.722656 270.875 C 194.359375 271.007812 192.992188 271.109375 191.621094 271.175781 C 190.253906 271.242188 188.882812 271.277344 187.511719 271.277344 C 186.140625 271.277344 184.769531 271.242188 183.402344 271.175781 C 182.03125 271.109375 180.664062 271.007812 179.300781 270.875 C 177.933594 270.738281 176.574219 270.570312 175.21875 270.371094 C 173.859375 270.167969 172.511719 269.933594 171.164062 269.667969 C 169.820312 269.398438 168.484375 269.097656 167.152344 268.765625 C 165.824219 268.433594 164.5 268.066406 163.1875 267.667969 C 161.878906 267.269531 160.574219 266.839844 159.285156 266.378906 C 157.992188 265.917969 156.714844 265.421875 155.449219 264.898438 C 154.179688 264.375 152.925781 263.820312 151.6875 263.230469 C 150.449219 262.644531 149.222656 262.03125 148.015625 261.382812 C 146.804688 260.738281 145.613281 260.0625 144.4375 259.355469 C 143.261719 258.652344 142.101562 257.917969 140.960938 257.15625 C 139.820312 256.394531 138.699219 255.605469 137.597656 254.789062 C 136.496094 253.972656 135.417969 253.128906 134.355469 252.257812 C 133.296875 251.386719 132.257812 250.492188 131.242188 249.570312 C 130.226562 248.652344 129.234375 247.707031 128.265625 246.734375 C 127.296875 245.765625 126.351562 244.773438 125.429688 243.757812 C 124.507812 242.742188 123.613281 241.703125 122.742188 240.644531 C 121.871094 239.582031 121.03125 238.503906 120.210938 237.402344 C 119.394531 236.300781 118.605469 235.179688 117.84375 234.039062 C 117.082031 232.898438 116.347656 231.742188 115.644531 230.566406 C 114.941406 229.386719 114.265625 228.195312 113.617188 226.984375 C 112.972656 225.777344 112.355469 224.550781 111.769531 223.3125 C 111.183594 222.074219 110.625 220.820312 110.101562 219.554688 C 109.578125 218.285156 109.082031 217.007812 108.621094 215.714844 C 108.160156 214.425781 107.730469 213.125 107.332031 211.8125 C 106.933594 210.5 106.566406 209.179688 106.234375 207.847656 C 105.902344 206.519531 105.601562 205.179688 105.332031 203.835938 C 105.066406 202.492188 104.832031 201.140625 104.628906 199.78125 C 104.429688 198.425781 104.261719 197.066406 104.128906 195.703125 C 103.992188 194.335938 103.890625 192.96875 103.824219 191.601562 C 103.757812 190.230469 103.722656 188.859375 103.722656 187.488281 C 103.722656 186.117188 103.757812 184.746094 103.824219 183.378906 C 103.890625 182.007812 103.992188 180.640625 104.128906 179.277344 C 104.261719 177.910156 104.429688 176.550781 104.628906 175.195312 C 104.832031 173.839844 105.066406 172.488281 105.332031 171.144531 C 105.601562 169.796875 105.902344 168.460938 106.234375 167.128906 C 106.566406 165.800781 106.933594 164.480469 107.332031 163.167969 C 107.730469 161.855469 108.160156 160.554688 108.621094 159.261719 C 109.082031 157.96875 109.578125 156.691406 110.101562 155.425781 C 110.625 154.15625 111.183594 152.90625 111.769531 151.664062 C 112.355469 150.425781 112.972656 149.199219 113.617188 147.992188 C 114.265625 146.78125 114.941406 145.589844 115.644531 144.414062 C 116.347656 143.238281 117.082031 142.078125 117.84375 140.9375 C 118.605469 139.796875 119.394531 138.679688 120.210938 137.578125 C 121.03125 136.476562 121.871094 135.394531 122.742188 134.335938 C 123.613281 133.273438 124.507812 132.238281 125.429688 131.21875 C 126.351562 130.203125 127.296875 129.210938 128.265625 128.242188 C 129.234375 127.273438 130.226562 126.328125 131.242188 125.40625 C 132.257812 124.484375 133.296875 123.589844 134.355469 122.71875 C 135.417969 121.851562 136.496094 121.007812 137.597656 120.191406 C 138.699219 119.375 139.820312 118.582031 140.960938 117.820312 C 142.101562 117.058594 143.261719 116.328125 144.4375 115.621094 C 145.613281 114.917969 146.804688 114.242188 148.015625 113.59375 C 149.222656 112.949219 150.449219 112.332031 151.6875 111.746094 C 152.925781 111.160156 154.179688 110.605469 155.449219 110.078125 C 156.714844 109.554688 157.992188 109.0625 159.285156 108.597656 C 160.574219 108.136719 161.878906 107.707031 163.1875 107.308594 C 164.5 106.910156 165.824219 106.546875 167.152344 106.210938 C 168.484375 105.878906 169.820312 105.578125 171.164062 105.3125 C 172.511719 105.042969 173.859375 104.808594 175.21875 104.609375 C 176.574219 104.40625 177.933594 104.238281 179.300781 104.105469 C 180.664062 103.96875 182.03125 103.871094 183.402344 103.800781 C 184.769531 103.734375 186.140625 103.699219 187.511719 103.699219 C 188.882812 103.699219 190.253906 103.734375 191.621094 103.800781 C 192.992188 103.871094 194.359375 103.96875 195.722656 104.105469 C 197.089844 104.238281 198.449219 104.40625 199.804688 104.609375 C 201.164062 104.808594 202.511719 105.042969 203.859375 105.3125 C 205.203125 105.578125 206.539062 105.878906 207.871094 106.210938 C 209.199219 106.546875 210.523438 106.910156 211.835938 107.308594 C 213.144531 107.707031 214.449219 108.136719 215.738281 108.597656 C 217.03125 109.0625 218.308594 109.554688 219.574219 110.078125 C 220.84375 110.605469 222.097656 111.160156 223.335938 111.746094 C 224.574219 112.332031 225.800781 112.949219 227.007812 113.59375 C 228.21875 114.242188 229.410156 114.917969 230.585938 115.621094 C 231.761719 116.328125 232.921875 117.058594 234.0625 117.820312 C 235.203125 118.582031 236.324219 119.375 237.425781 120.191406 C 238.527344 121.007812 239.605469 121.851562 240.667969 122.71875 C 241.726562 123.589844 242.765625 124.484375 243.78125 125.40625 C 244.796875 126.328125 245.789062 127.273438 246.757812 128.242188 C 247.726562 129.210938 248.671875 130.203125 249.59375 131.21875 C 250.515625 132.238281 251.410156 133.273438 252.28125 134.335938 C 253.152344 135.394531 253.992188 136.476562 254.8125 137.578125 C 255.628906 138.679688 256.417969 139.796875 257.179688 140.9375 C 257.941406 142.078125 258.675781 143.238281 259.378906 144.414062 C 260.082031 145.589844 260.757812 146.78125 261.40625 147.992188 C 262.050781 149.199219 262.667969 150.425781 263.253906 151.664062 C 263.839844 152.90625 264.398438 154.15625 264.921875 155.425781 C 265.445312 156.691406 265.941406 157.96875 266.402344 159.261719 C 266.863281 160.554688 267.292969 161.855469 267.691406 163.167969 C 268.089844 164.480469 268.457031 165.800781 268.789062 167.128906 C 269.121094 168.460938 269.421875 169.796875 269.691406 171.144531 C 269.957031 172.488281 270.191406 173.839844 270.394531 175.195312 C 270.59375 176.550781 270.761719 177.910156 270.894531 179.277344 C 271.03125 180.640625 271.132812 182.007812 271.199219 183.378906 C 271.265625 184.746094 271.300781 186.117188 271.300781 187.488281 Z M 271.300781 187.488281 " fill-opacity="1" fill-rule="nonzero"/><path fill="#f7b618" d="M 239.003906 187.488281 C 239.003906 189.175781 238.921875 190.859375 238.753906 192.535156 C 238.589844 194.214844 238.34375 195.878906 238.015625 197.535156 C 237.683594 199.1875 237.277344 200.824219 236.785156 202.4375 C 236.296875 204.050781 235.730469 205.636719 235.082031 207.195312 C 234.4375 208.753906 233.71875 210.273438 232.921875 211.761719 C 232.128906 213.25 231.261719 214.695312 230.324219 216.097656 C 229.386719 217.5 228.386719 218.851562 227.316406 220.15625 C 226.246094 221.457031 225.113281 222.707031 223.921875 223.898438 C 222.730469 225.089844 221.480469 226.222656 220.179688 227.292969 C 218.875 228.363281 217.519531 229.367188 216.117188 230.304688 C 214.71875 231.238281 213.273438 232.105469 211.785156 232.902344 C 210.296875 233.695312 208.773438 234.414062 207.214844 235.0625 C 205.660156 235.707031 204.074219 236.273438 202.457031 236.761719 C 200.84375 237.253906 199.210938 237.664062 197.558594 237.992188 C 195.902344 238.320312 194.238281 238.566406 192.558594 238.734375 C 190.878906 238.898438 189.199219 238.980469 187.511719 238.980469 C 185.824219 238.980469 184.144531 238.898438 182.464844 238.734375 C 180.785156 238.566406 179.121094 238.320312 177.464844 237.992188 C 175.8125 237.664062 174.179688 237.253906 172.5625 236.761719 C 170.949219 236.273438 169.363281 235.707031 167.808594 235.0625 C 166.25 234.414062 164.726562 233.695312 163.238281 232.902344 C 161.75 232.105469 160.304688 231.238281 158.90625 230.304688 C 157.503906 229.367188 156.148438 228.363281 154.84375 227.292969 C 153.542969 226.222656 152.292969 225.089844 151.101562 223.898438 C 149.910156 222.707031 148.777344 221.457031 147.707031 220.15625 C 146.636719 218.851562 145.636719 217.5 144.699219 216.097656 C 143.761719 214.695312 142.894531 213.25 142.101562 211.761719 C 141.304688 210.273438 140.585938 208.753906 139.941406 207.195312 C 139.292969 205.636719 138.726562 204.050781 138.238281 202.4375 C 137.746094 200.824219 137.339844 199.1875 137.007812 197.535156 C 136.679688 195.878906 136.433594 194.214844 136.269531 192.535156 C 136.101562 190.859375 136.019531 189.175781 136.019531 187.488281 C 136.019531 185.800781 136.101562 184.121094 136.269531 182.441406 C 136.433594 180.761719 136.679688 179.097656 137.007812 177.445312 C 137.339844 175.789062 137.746094 174.15625 138.238281 172.542969 C 138.726562 170.929688 139.292969 169.34375 139.941406 167.785156 C 140.585938 166.226562 141.304688 164.703125 142.101562 163.214844 C 142.894531 161.730469 143.761719 160.285156 144.699219 158.882812 C 145.636719 157.480469 146.636719 156.125 147.707031 154.824219 C 148.777344 153.519531 149.910156 152.269531 151.101562 151.078125 C 152.292969 149.886719 153.542969 148.753906 154.84375 147.683594 C 156.148438 146.617188 157.503906 145.613281 158.90625 144.675781 C 160.304688 143.738281 161.75 142.871094 163.238281 142.078125 C 164.726562 141.28125 166.25 140.5625 167.808594 139.917969 C 169.363281 139.269531 170.949219 138.703125 172.5625 138.214844 C 174.179688 137.726562 175.8125 137.316406 177.464844 136.988281 C 179.121094 136.65625 180.785156 136.410156 182.464844 136.246094 C 184.144531 136.078125 185.824219 135.996094 187.511719 135.996094 C 189.199219 135.996094 190.878906 136.078125 192.558594 136.246094 C 194.238281 136.410156 195.902344 136.65625 197.558594 136.988281 C 199.210938 137.316406 200.84375 137.726562 202.457031 138.214844 C 204.074219 138.703125 205.660156 139.269531 207.214844 139.917969 C 208.773438 140.5625 210.296875 141.28125 211.785156 142.078125 C 213.273438 142.871094 214.71875 143.738281 216.117188 144.675781 C 217.519531 145.613281 218.875 146.617188 220.179688 147.683594 C 221.480469 148.753906 222.730469 149.886719 223.921875 151.078125 C 225.113281 152.269531 226.246094 153.519531 227.316406 154.824219 C 228.386719 156.125 229.386719 157.480469 230.324219 158.882812 C 231.261719 160.285156 232.128906 161.730469 232.921875 163.214844 C 233.71875 164.703125 234.4375 166.226562 235.082031 167.785156 C 235.730469 169.34375 236.296875 170.929688 236.785156 172.542969 C 237.277344 174.15625 237.683594 175.789062 238.015625 177.445312 C 238.34375 179.097656 238.589844 180.761719 238.753906 182.441406 C 238.921875 184.121094 239.003906 185.800781 239.003906 187.488281 Z M 239.003906 187.488281 " fill-opacity="1" fill-rule="nonzero"/><g clip-path="url(#1cc58e6367)"><path fill="#213851" d="M 277.03125 219.695312 L 262.066406 204.820312 L 251.332031 194.128906 L 243.371094 202.863281 L 241.414062 205 L 226.222656 194.265625 L 216.167969 187.171875 L 209.753906 192.128906 L 187.511719 166.429688 L 165.269531 186.714844 L 155.398438 184.257812 L 148.527344 192.355469 L 133.925781 209.503906 L 127.195312 217.417969 L 117.6875 218.875 L 107.910156 220.375 L 100.902344 226.925781 L 86.710938 240.207031 C 87.210938 241.117188 87.667969 242.027344 88.167969 242.9375 C 92.398438 250.535156 97.492188 257.585938 103.316406 263.953125 C 103.585938 264.273438 103.859375 264.542969 104.132812 264.863281 C 106.269531 267.183594 108.5 269.410156 110.820312 271.503906 C 115.097656 275.417969 119.691406 279.007812 124.511719 282.195312 C 126.46875 283.511719 128.46875 284.742188 130.46875 285.921875 C 134.65625 288.378906 139.023438 290.519531 143.570312 292.429688 C 145.027344 293.019531 146.480469 293.609375 147.9375 294.15625 C 149.800781 294.839844 151.667969 295.476562 153.53125 296.066406 C 153.898438 296.160156 154.261719 296.292969 154.625 296.386719 C 160.765625 298.25 167.132812 299.570312 173.636719 300.390625 C 177.324219 300.84375 181.097656 301.117188 184.875 301.207031 C 185.738281 301.207031 186.601562 301.253906 187.464844 301.253906 C 193.425781 301.253906 199.246094 300.796875 204.933594 299.933594 C 206.207031 299.753906 207.480469 299.523438 208.753906 299.296875 C 213.257812 298.433594 217.625 297.339844 221.945312 295.976562 C 224.355469 295.203125 226.765625 294.339844 229.132812 293.429688 C 242.914062 288.015625 255.332031 279.964844 265.886719 269.957031 C 269.480469 266.546875 272.847656 262.863281 275.984375 258.996094 C 276.03125 258.949219 276.03125 258.949219 276.074219 258.902344 C 276.710938 258.132812 277.304688 257.359375 277.941406 256.539062 C 282.625 250.398438 286.675781 243.800781 290.085938 236.796875 C 290.539062 235.886719 290.949219 234.933594 291.40625 233.976562 Z M 277.03125 219.695312 " fill-opacity="1" fill-rule="nonzero"/></g><path fill="#edd6ab" d="M 143.980469 279.328125 L 148.574219 270.414062 L 134.0625 279.828125 L 134.0625 283.875 L 130.515625 285.878906 C 134.699219 288.335938 139.066406 290.472656 143.617188 292.382812 L 155.398438 281.285156 Z M 123.148438 279.054688 L 130.015625 274.234375 L 125.96875 274.234375 L 130.5625 268.136719 L 121.917969 270.414062 L 130.0625 263.042969 L 110.910156 271.457031 C 115.1875 275.371094 119.78125 278.964844 124.601562 282.148438 L 129.058594 278.507812 Z M 154.667969 296.386719 C 160.8125 298.25 167.179688 299.570312 173.683594 300.390625 L 166.722656 290.199219 Z M 227.675781 282.421875 L 219.898438 273.234375 L 232.863281 273.234375 L 220.898438 260.859375 L 230.269531 261.996094 L 218.578125 248.304688 L 221.125 248.304688 L 217.535156 244.347656 L 228.496094 243.574219 L 226.175781 240.753906 L 231.042969 241.390625 L 214.257812 221.742188 L 214.257812 224.425781 L 210.984375 223.425781 L 212.164062 228.292969 L 198.839844 214.644531 L 188.601562 208.277344 L 188.601562 202.546875 L 190.148438 206.640625 L 193.335938 208.320312 L 188.875 200.542969 L 181.097656 196.3125 L 183.917969 190.582031 L 186.238281 192.355469 L 185.964844 188.445312 L 189.558594 191.21875 L 187.875 182.394531 L 183.917969 178.710938 L 181.097656 188.445312 L 177.277344 193.902344 L 165.269531 190.945312 L 155.398438 188.488281 L 172.089844 206.546875 L 174.773438 228.425781 L 184.054688 236.570312 L 181.144531 238.070312 L 197.382812 254.171875 L 191.015625 254.171875 L 204.75 266.957031 L 200.476562 266.957031 L 214.210938 281.464844 L 174.183594 256.039062 L 188.285156 253.035156 L 166.222656 247.214844 L 169.5 243.9375 L 139.296875 226.699219 L 143.570312 236.980469 L 132.515625 238.117188 L 166.679688 278.964844 L 172.089844 275.1875 L 204.933594 300.070312 C 206.207031 299.886719 207.480469 299.660156 208.753906 299.433594 L 201.15625 285.195312 L 222.035156 295.839844 C 224.449219 295.066406 226.859375 294.203125 229.222656 293.292969 L 218.945312 282.375 L 227.675781 282.375 Z M 268.207031 233.339844 L 275.894531 234.796875 L 268.207031 221.832031 L 279.578125 230.792969 L 275.074219 221.832031 L 251.332031 198.222656 L 263.929688 224.425781 L 265.703125 237.933594 L 276.121094 258.859375 C 276.757812 258.085938 277.347656 257.3125 277.984375 256.492188 L 273.621094 247.488281 Z M 259.019531 232.203125 L 251.648438 226.515625 L 241.460938 209.09375 L 216.261719 191.308594 L 253.148438 247.167969 L 244.960938 246.394531 L 261.566406 263 L 265.976562 269.914062 C 269.570312 266.5 272.9375 262.816406 276.074219 258.949219 L 259.109375 237.933594 L 259.109375 232.203125 Z M 132.5625 237.933594 L 120.191406 231.382812 L 131.878906 229.066406 L 131.878906 232.25 L 139.339844 226.5625 L 162.175781 219.011719 L 171.863281 224.46875 L 167.726562 207.957031 L 159.765625 198.40625 L 164.496094 213.144531 L 159.492188 212.417969 L 154.851562 219.921875 L 145.84375 223.789062 L 127.148438 221.46875 L 107.910156 224.425781 L 123.875 244.574219 Z M 192.925781 190.808594 L 196.019531 206.003906 L 199.703125 202.089844 L 203.203125 211.734375 L 203.839844 206.820312 L 209.390625 212.371094 L 206.117188 202.5 L 213.074219 211.324219 L 209.800781 196.222656 L 187.558594 170.523438 L 196.0625 192.445312 Z M 192.925781 190.808594 " fill-opacity="1" fill-rule="nonzero"/><g fill="#edd6ab" fill-opacity="1"><g transform="translate(142.162926, 65.505682)"><g><path d="M -5.3125 -26.0625 L 2.625 -28.28125 C 5.019531 -28.957031 7.070312 -28.984375 8.78125 -28.359375 C 10.5 -27.734375 11.679688 -26.273438 12.328125 -23.984375 C 13.046875 -21.421875 12.488281 -19.296875 10.65625 -17.609375 C 14.46875 -17.992188 16.882812 -16.351562 17.90625 -12.6875 C 18.507812 -10.539062 18.25 -8.609375 17.125 -6.890625 C 16.007812 -5.179688 14.15625 -3.960938 11.5625 -3.234375 L 1.84375 -0.515625 Z M 3.328125 -17.6875 L 3.796875 -17.828125 C 5.097656 -18.191406 6.003906 -18.6875 6.515625 -19.3125 C 7.023438 -19.945312 7.132812 -20.785156 6.84375 -21.828125 C 6.363281 -23.546875 4.832031 -24.046875 2.25 -23.328125 L 1.78125 -23.1875 Z M 6.421875 -6.625 L 8.265625 -7.140625 C 11.109375 -7.941406 12.257812 -9.296875 11.71875 -11.203125 C 11.40625 -12.335938 10.820312 -13.050781 9.96875 -13.34375 C 9.113281 -13.644531 7.976562 -13.59375 6.5625 -13.1875 L 4.71875 -12.671875 Z M 6.421875 -6.625 "/></g></g></g><g fill="#edd6ab" fill-opacity="1"><g transform="translate(165.872778, 59.066497)"><g><path d="M 20.34375 -28.078125 L 21.578125 -11 C 21.804688 -7.75 21.101562 -5.226562 19.46875 -3.4375 C 17.84375 -1.644531 15.335938 -0.625 11.953125 -0.375 C 8.578125 -0.132812 5.953125 -0.78125 4.078125 -2.3125 C 2.210938 -3.851562 1.164062 -6.25 0.9375 -9.5 L -0.296875 -26.578125 L 5.734375 -27.015625 L 6.828125 -11.703125 C 6.984375 -9.566406 7.425781 -8.109375 8.15625 -7.328125 C 8.882812 -6.546875 10.007812 -6.207031 11.53125 -6.3125 C 13.0625 -6.425781 14.128906 -6.921875 14.734375 -7.796875 C 15.335938 -8.679688 15.5625 -10.191406 15.40625 -12.328125 L 14.3125 -27.640625 Z M 20.34375 -28.078125 "/></g></g></g><g fill="#edd6ab" fill-opacity="1"><g transform="translate(192.971964, 57.686193)"><g><path d="M 11.015625 -25.421875 L 8.546875 -4.359375 L 17.625 -3.28125 L 17 2 L 1.90625 0.21875 L 5 -26.125 Z M 11.015625 -25.421875 "/></g></g></g><g fill="#edd6ab" fill-opacity="1"><g transform="translate(214.355481, 60.484611)"><g><path d="M 15.09375 -23.234375 L 9.140625 -2.859375 L 17.921875 -0.28125 L 16.421875 4.8125 L 1.84375 0.546875 L 9.296875 -24.921875 Z M 15.09375 -23.234375 "/></g></g></g><g fill="#edd6ab" fill-opacity="1"><g transform="translate(40.726655, 192.429091)"><g><path d="M 5.9375 -12.140625 C 5.9375 -12.859375 5.816406 -13.34375 5.578125 -13.59375 C 5.335938 -13.851562 5.019531 -13.984375 4.625 -13.984375 C 4.226562 -13.984375 3.910156 -13.863281 3.671875 -13.625 C 3.429688 -13.382812 3.3125 -12.972656 3.3125 -12.390625 L 3.3125 -10.671875 L 0.921875 -10.671875 L 0.921875 -12.234375 C 0.921875 -13.535156 1.238281 -14.535156 1.875 -15.234375 C 2.507812 -15.929688 3.445312 -16.28125 4.6875 -16.28125 C 5.9375 -16.28125 6.878906 -15.929688 7.515625 -15.234375 C 8.148438 -14.535156 8.46875 -13.535156 8.46875 -12.234375 C 8.46875 -11.390625 8.34375 -10.625 8.09375 -9.9375 C 7.851562 -9.257812 7.539062 -8.640625 7.15625 -8.078125 C 6.78125 -7.523438 6.375 -7.007812 5.9375 -6.53125 C 5.507812 -6.050781 5.101562 -5.597656 4.71875 -5.171875 C 4.34375 -4.742188 4.03125 -4.328125 3.78125 -3.921875 C 3.539062 -3.515625 3.421875 -3.085938 3.421875 -2.640625 C 3.421875 -2.492188 3.429688 -2.378906 3.453125 -2.296875 L 8.234375 -2.296875 L 8.234375 0 L 0.921875 0 L 0.921875 -1.984375 C 0.921875 -2.765625 1.039062 -3.453125 1.28125 -4.046875 C 1.53125 -4.640625 1.84375 -5.1875 2.21875 -5.6875 C 2.59375 -6.1875 2.992188 -6.65625 3.421875 -7.09375 C 3.859375 -7.53125 4.265625 -7.992188 4.640625 -8.484375 C 5.015625 -8.972656 5.320312 -9.507812 5.5625 -10.09375 C 5.8125 -10.675781 5.9375 -11.359375 5.9375 -12.140625 Z M 5.9375 -12.140625 "/></g></g></g><g fill="#edd6ab" fill-opacity="1"><g transform="translate(49.830567, 192.429091)"><g><path d="M 3.25 -3.703125 C 3.25 -3.117188 3.363281 -2.707031 3.59375 -2.46875 C 3.832031 -2.226562 4.148438 -2.109375 4.546875 -2.109375 C 4.953125 -2.109375 5.269531 -2.226562 5.5 -2.46875 C 5.738281 -2.707031 5.859375 -3.117188 5.859375 -3.703125 L 5.859375 -12.390625 C 5.859375 -12.972656 5.738281 -13.382812 5.5 -13.625 C 5.269531 -13.863281 4.953125 -13.984375 4.546875 -13.984375 C 4.148438 -13.984375 3.832031 -13.863281 3.59375 -13.625 C 3.363281 -13.382812 3.25 -12.972656 3.25 -12.390625 Z M 0.71875 -12.234375 C 0.71875 -13.535156 1.046875 -14.535156 1.703125 -15.234375 C 2.359375 -15.929688 3.304688 -16.28125 4.546875 -16.28125 C 5.796875 -16.28125 6.75 -15.929688 7.40625 -15.234375 C 8.0625 -14.535156 8.390625 -13.535156 8.390625 -12.234375 L 8.390625 -3.859375 C 8.390625 -2.554688 8.0625 -1.554688 7.40625 -0.859375 C 6.75 -0.160156 5.796875 0.1875 4.546875 0.1875 C 3.304688 0.1875 2.359375 -0.160156 1.703125 -0.859375 C 1.046875 -1.554688 0.71875 -2.554688 0.71875 -3.859375 Z M 0.71875 -12.234375 "/></g></g></g><g fill="#edd6ab" fill-opacity="1"><g transform="translate(319.752854, 192.577307)"><g><path d="M 6.109375 -12.5 C 6.109375 -13.25 5.984375 -13.753906 5.734375 -14.015625 C 5.492188 -14.273438 5.171875 -14.40625 4.765625 -14.40625 C 4.347656 -14.40625 4.015625 -14.28125 3.765625 -14.03125 C 3.523438 -13.789062 3.40625 -13.367188 3.40625 -12.765625 L 3.40625 -10.984375 L 0.953125 -10.984375 L 0.953125 -12.609375 C 0.953125 -13.941406 1.273438 -14.96875 1.921875 -15.6875 C 2.578125 -16.40625 3.546875 -16.765625 4.828125 -16.765625 C 6.109375 -16.765625 7.078125 -16.40625 7.734375 -15.6875 C 8.390625 -14.96875 8.71875 -13.941406 8.71875 -12.609375 C 8.71875 -11.734375 8.585938 -10.941406 8.328125 -10.234375 C 8.078125 -9.535156 7.757812 -8.898438 7.375 -8.328125 C 6.988281 -7.753906 6.570312 -7.222656 6.125 -6.734375 C 5.675781 -6.242188 5.253906 -5.773438 4.859375 -5.328125 C 4.472656 -4.890625 4.15625 -4.457031 3.90625 -4.03125 C 3.65625 -3.613281 3.53125 -3.175781 3.53125 -2.71875 C 3.53125 -2.5625 3.535156 -2.445312 3.546875 -2.375 L 8.484375 -2.375 L 8.484375 0 L 0.953125 0 L 0.953125 -2.03125 C 0.953125 -2.84375 1.078125 -3.554688 1.328125 -4.171875 C 1.578125 -4.785156 1.894531 -5.347656 2.28125 -5.859375 C 2.664062 -6.367188 3.078125 -6.847656 3.515625 -7.296875 C 3.960938 -7.753906 4.378906 -8.234375 4.765625 -8.734375 C 5.160156 -9.242188 5.484375 -9.796875 5.734375 -10.390625 C 5.984375 -10.992188 6.109375 -11.695312 6.109375 -12.5 Z M 6.109375 -12.5 "/></g></g></g><g fill="#edd6ab" fill-opacity="1"><g transform="translate(329.130509, 192.577307)"><g><path d="M 3.296875 -5.359375 L 3.296875 -3.8125 C 3.296875 -3.207031 3.414062 -2.785156 3.65625 -2.546875 C 3.90625 -2.316406 4.234375 -2.203125 4.640625 -2.203125 C 5.054688 -2.203125 5.382812 -2.316406 5.625 -2.546875 C 5.875 -2.785156 6 -3.207031 6 -3.8125 L 6 -7.46875 C 6 -8.0625 5.875 -8.476562 5.625 -8.71875 C 5.382812 -8.96875 5.054688 -9.09375 4.640625 -9.09375 C 4.234375 -9.09375 3.90625 -8.96875 3.65625 -8.71875 C 3.414062 -8.476562 3.296875 -8.0625 3.296875 -7.46875 L 3.296875 -6.96875 L 0.828125 -6.96875 L 1.296875 -16.578125 L 8.171875 -16.578125 L 8.171875 -14.21875 L 3.640625 -14.21875 L 3.4375 -10.25 C 3.925781 -11.0625 4.679688 -11.46875 5.703125 -11.46875 C 6.671875 -11.46875 7.394531 -11.140625 7.875 -10.484375 C 8.351562 -9.835938 8.59375 -8.898438 8.59375 -7.671875 L 8.59375 -3.984375 C 8.59375 -2.640625 8.265625 -1.609375 7.609375 -0.890625 C 6.953125 -0.171875 5.988281 0.1875 4.71875 0.1875 C 3.4375 0.1875 2.46875 -0.171875 1.8125 -0.890625 C 1.15625 -1.609375 0.828125 -2.640625 0.828125 -3.984375 L 0.828125 -5.359375 Z M 3.296875 -5.359375 "/></g></g></g><g fill="#edd6ab" fill-opacity="1"><g transform="translate(141.309486, 332.833313)"><g><path d="M 4.921875 -15.84375 L 12.640625 -13.53125 L 11.96875 -11.265625 L 9.34375 -12.046875 L 5.28125 1.578125 L 2.78125 0.828125 L 6.84375 -12.796875 L 4.25 -13.578125 Z M 4.921875 -15.84375 "/></g></g></g><g fill="#edd6ab" fill-opacity="1"><g transform="translate(157.305939, 337.140616)"><g><path d="M 6.296875 1.109375 C 6.285156 0.984375 6.269531 0.867188 6.25 0.765625 C 6.238281 0.671875 6.234375 0.554688 6.234375 0.421875 C 6.242188 0.285156 6.257812 0.109375 6.28125 -0.109375 C 6.3125 -0.335938 6.359375 -0.613281 6.421875 -0.9375 L 6.875 -3.5 C 7 -4.257812 6.957031 -4.816406 6.75 -5.171875 C 6.550781 -5.535156 6.15625 -5.769531 5.5625 -5.875 L 4.671875 -6.03125 L 3.5 0.609375 L 0.9375 0.171875 L 3.8125 -16.15625 L 7.671875 -15.484375 C 9.015625 -15.242188 9.929688 -14.757812 10.421875 -14.03125 C 10.910156 -13.3125 11.046875 -12.320312 10.828125 -11.0625 L 10.59375 -9.78125 C 10.300781 -8.09375 9.546875 -7.082031 8.328125 -6.75 C 8.929688 -6.382812 9.300781 -5.878906 9.4375 -5.234375 C 9.570312 -4.585938 9.566406 -3.84375 9.421875 -3 L 8.96875 -0.46875 C 8.894531 -0.0625 8.847656 0.289062 8.828125 0.59375 C 8.804688 0.90625 8.832031 1.226562 8.90625 1.5625 Z M 5.96875 -13.390625 L 5.078125 -8.375 L 6.09375 -8.1875 C 6.570312 -8.101562 6.96875 -8.160156 7.28125 -8.359375 C 7.601562 -8.554688 7.820312 -8.984375 7.9375 -9.640625 L 8.21875 -11.25 C 8.320312 -11.84375 8.289062 -12.289062 8.125 -12.59375 C 7.96875 -12.894531 7.660156 -13.085938 7.203125 -13.171875 Z M 5.96875 -13.390625 "/></g></g></g><g fill="#edd6ab" fill-opacity="1"><g transform="translate(174.790056, 339.729246)"><g><path d="M 9.359375 0.515625 L 6.734375 0.375 L 6.453125 -2.671875 L 3.28125 -2.84375 L 2.65625 0.140625 L 0.265625 0.015625 L 3.8125 -16.390625 L 7.625 -16.171875 Z M 3.734375 -5.0625 L 6.234375 -4.921875 L 5.4375 -13.359375 Z M 3.734375 -5.0625 "/></g></g></g><g fill="#edd6ab" fill-opacity="1"><g transform="translate(192.576106, 340.221251)"><g><path d="M 4.65625 -3.375 L 5.796875 -16.984375 L 8.1875 -17.140625 L 6.6875 -0.421875 L 2.8125 -0.1875 L -0.796875 -16.5625 L 1.828125 -16.734375 Z M 4.65625 -3.375 "/></g></g></g><g fill="#edd6ab" fill-opacity="1"><g transform="translate(210.159546, 338.600045)"><g><path d="M 1.765625 -10.078125 L 5.296875 -10.71875 L 5.71875 -8.390625 L 2.1875 -7.75 L 3.0625 -2.984375 L 7.5 -3.78125 L 7.921875 -1.4375 L 0.9375 -0.171875 L -2.03125 -16.484375 L 4.953125 -17.75 L 5.375 -15.421875 L 0.9375 -14.625 Z M 1.765625 -10.078125 "/></g></g></g><g fill="#edd6ab" fill-opacity="1"><g transform="translate(226.625637, 335.129468)"><g><path d="M -3.84375 -16.15625 L -1.359375 -16.90625 L 2.703125 -3.296875 L 6.828125 -4.53125 L 7.515625 -2.25 L 0.90625 -0.265625 Z M -3.84375 -16.15625 "/></g></g></g></svg>